<svg xmlns="http://www.w3.org/2000/svg" xml:space="preserve" fill-rule="evenodd" clip-rule="evenodd" viewBox="0 0 680 245"><path fill="#f7f6f9" stroke="#dbd7e0" d="M105 8v19c0 1.656-1.344 3-3 3H8c-1.656 0-3-1.344-3-3V8c0-1.656 1.344-3 3-3h94c1.656 0 3 1.344 3 3ZM65 43v19c0 1.656-1.344 3-3 3H8c-1.656 0-3-1.344-3-3V43c0-1.656 1.344-3 3-3h54c1.656 0 3 1.344 3 3ZM225 78v19c0 1.656-1.344 3-3 3H8c-1.656 0-3-1.344-3-3V78c0-1.656 1.344-3 3-3h214c1.656 0 3 1.344 3 3Z"/><path fill="#d7cfe3" stroke="#ac9bc5" d="M45 114v19c0 1.656-1.344 3-3 3H8c-1.656 0-3-1.344-3-3v-19c0-1.656 1.344-3 3-3h34c1.656 0 3 1.344 3 3Z"/><path fill="#f7f6f9" stroke="#dbd7e0" d="M254 114v19c0 1.656-1.344 3-3 3H57c-1.656 0-3-1.344-3-3v-19c0-1.656 1.344-3 3-3h194c1.656 0 3 1.344 3 3Z"/><path fill="#d7cfe3" stroke="#ac9bc5" d="M354 114v19c0 1.656-1.344 3-3 3h-84c-1.656 0-3-1.344-3-3v-19c0-1.656 1.344-3 3-3h84c1.656 0 3 1.344 3 3Z"/><path fill="#f7f6f9" stroke="#dbd7e0" d="M205 148v19c0 1.656-1.344 3-3 3H8c-1.656 0-3-1.344-3-3v-19c0-1.656 1.344-3 3-3h194c1.656 0 3 1.344 3 3ZM145 183v19c0 1.656-1.344 3-3 3H8c-1.656 0-3-1.344-3-3v-19c0-1.656 1.344-3 3-3h134c1.656 0 3 1.344 3 3ZM95 218v19c0 1.656-1.344 3-3 3H8c-1.656 0-3-1.344-3-3v-19c0-1.656 1.344-3 3-3h84c1.656 0 3 1.344 3 3ZM504 8v19c0 1.656-1.344 3-3 3h-94c-1.656 0-3-1.344-3-3V8c0-1.656 1.344-3 3-3h94c1.656 0 3 1.344 3 3ZM464 43v19c0 1.656-1.344 3-3 3h-54c-1.656 0-3-1.344-3-3V43c0-1.656 1.344-3 3-3h54c1.656 0 3 1.344 3 3ZM624 78v19c0 1.656-1.344 3-3 3H407c-1.656 0-3-1.344-3-3V78c0-1.656 1.344-3 3-3h214c1.656 0 3 1.344 3 3Z"/><path fill="#d7cfe3" stroke="#ac9bc5" d="M444 114v19c0 1.656-1.344 3-3 3h-34c-1.656 0-3-1.344-3-3v-19c0-1.656 1.344-3 3-3h34c1.656 0 3 1.344 3 3Z"/><path fill="#f7f6f9" stroke="#dbd7e0" d="M654 114v19c0 1.656-1.344 3-3 3H457c-1.656 0-3-1.344-3-3v-19c0-1.656 1.344-3 3-3h194c1.656 0 3 1.344 3 3Z"/><path fill="#d7cfe3" stroke="#ac9bc5" d="M674 114v19c0 1.656-1.344 3-3 3h-4c-1.656 0-3-1.344-3-3v-19c0-1.656 1.344-3 3-3h4c1.656 0 3 1.344 3 3ZM524 148v19c0 1.656-1.344 3-3 3h-84c-1.656 0-3-1.344-3-3v-19c0-1.656 1.344-3 3-3h84c1.656 0 3 1.344 3 3ZM414 183v19c0 1.656-1.344 3-3 3h-4c-1.656 0-3-1.344-3-3v-19c0-1.656 1.344-3 3-3h4c1.656 0 3 1.344 3 3Z"/><path fill="#f7f6f9" stroke="#dbd7e0" d="M604 218v19c0 1.656-1.344 3-3 3H407c-1.656 0-3-1.344-3-3v-19c0-1.656 1.344-3 3-3h194c1.656 0 3 1.344 3 3Z"/></svg>