<svg xmlns="http://www.w3.org/2000/svg" xml:space="preserve" fill-rule="evenodd" stroke-linejoin="round" stroke-miterlimit="2" clip-rule="evenodd" viewBox="0 0 245 281"><g fill="none" stroke="#8c8792"><path d="M124.746 47v68.7M103.316 160l-6.778 6.167c-6.777 6.166-20.331 18.5-27.108 29.95-6.778 11.45-6.778 22.016-6.778 27.3v5.283M146.177 160l6.777 6.167c6.777 6.166 20.331 18.5 27.109 29.95 6.777 11.45 6.777 22.016 6.777 27.3v5.283"/></g><path fill="#ebe7f1" stroke="#ac9bc5" d="M145.652 14v29c0 2.76-2.24 5-5 5H108.84c-2.76 0-5-2.24-5-5V14c0-2.76 2.24-5 5-5h31.812c2.76 0 5 2.24 5 5ZM159.918 126v29c0 2.76-2.241 5-5 5H94.574c-2.759 0-5-2.24-5-5v-29c0-2.76 2.241-5 5-5h60.344c2.759 0 5 2.24 5 5ZM91.453 239v29c0 2.76-2.24 5-5 5H38.851c-2.759 0-5-2.24-5-5v-29c0-2.76 2.241-5 5-5h47.602c2.76 0 5 2.24 5 5ZM216.203 239v29c0 2.76-2.24 5-5 5h-48.726c-2.76 0-5-2.24-5-5v-29c0-2.76 2.24-5 5-5h48.726c2.76 0 5 2.24 5 5Z"/><text x="113.555" y="28.271" fill="#4c4b4e" font-family="'Lato-Regular','Lato',sans-serif" font-size="18" transform="translate(-2.513 5.468)">I<tspan x="118.325" y="28.271">d</tspan>le</text><path fill="#e8e5eb" d="M108.781 77.762h32.144v15.304h-32.144z"/><text x="90.414" y="83.053" fill="#4c4b4e" font-family="'Lato-Regular','Lato',sans-serif" font-size="14" transform="translate(19.52 7.1)">L<tspan x="97.092" y="83.053">o</tspan>ad</text><path fill="#e8e5eb" d="M17.949 192.957h99.558v17.082H17.949z"/><text x="57.269" y="83.053" fill="#4c4b4e" font-family="'Lato-Regular','Lato',sans-serif" font-size="14" transform="translate(-37.441 122.934)">L<tspan x="63.947" y="83.053">o</tspan>adingS<tspan x="112.534 120.339 126.898 133.457" y="83.053 83.053 83.053 83.053">ucce</tspan>ss</text><path fill="#e8e5eb" d="M138.637 192.872h87.379v17.082h-87.379z"/><text x="63.373" y="83.053" fill="#4c4b4e" font-family="'Lato-Regular','Lato',sans-serif" font-size="14" transform="translate(77.067 122.849)">L<tspan x="70.051" y="83.053">o</tspan>ading<tspan x="111.092 118.015" y="83.053 83.053">Fa</tspan>iled</text><text x="97.085" y="28.271" fill="#4c4b4e" font-family="'Lato-Regular','Lato',sans-serif" font-size="18" transform="translate(-3.649 118.43)">L<tspan x="105.671" y="28.271">o</tspan>ading</text><text x="103.606" y="28.271" fill="#4c4b4e" font-family="'Lato-Regular','Lato',sans-serif" font-size="18" transform="translate(-65.568 231.142)">R<tspan x="114.298" y="28.271">e</tspan>ady</text><text x="104.857" y="28.271" fill="#4c4b4e" font-family="'Lato-Regular','Lato',sans-serif" font-size="18" transform="translate(59.667 230.985)">F<tspan x="113.758" y="28.271">a</tspan>iled</text><path fill="#8c8792" d="m124.729 120.556-2.803-6.929h5.605l-2.802 6.929ZM62.697 233.584l-2.803-6.929h5.605l-2.802 6.929ZM186.865 233.539l-2.803-6.929h5.605l-2.802 6.929Z"/></svg>